<svg xmlns="http://www.w3.org/2000/svg" xmlns:xlink="http://www.w3.org/1999/xlink" xmlns:dc="http://purl.org/dc/elements/1.1/" xmlns:cc="http://creativecommons.org/ns#" xmlns:rdf="http://www.w3.org/1999/02/22-rdf-syntax-ns#" xmlns:svg="http://www.w3.org/2000/svg" xmlns:sodipodi="http://sodipodi.sourceforge.net/DTD/sodipodi-0.dtd" xmlns:inkscape="http://www.inkscape.org/namespaces/inkscape"><defs><symbol viewBox="0 0 24 25" fill="none" id="icon-basket">
<path d="M7.27003 15.9135H20.3143C21.7934 15.9135 23 14.7069 23 13.2278V7.73958C23 7.73472 23 7.72499 23 7.72012C23 7.70552 23 7.69579 23 7.6812C23 7.67147 23 7.66174 22.9951 7.65201C22.9951 7.64227 22.9903 7.62768 22.9903 7.61795C22.9903 7.60822 22.9854 7.59849 22.9854 7.58875C22.9805 7.57902 22.9805 7.56929 22.9757 7.5547C22.9708 7.54497 22.9708 7.53523 22.9659 7.5255C22.9611 7.51577 22.9611 7.50604 22.9562 7.49631C22.9513 7.48658 22.9465 7.47685 22.9416 7.46225C22.9368 7.45252 22.9319 7.44279 22.927 7.43793C22.9222 7.4282 22.9173 7.41846 22.9124 7.40873C22.9076 7.399 22.9027 7.39414 22.8978 7.38441C22.893 7.37468 22.8832 7.36494 22.8784 7.35521C22.8735 7.34548 22.8686 7.34062 22.8589 7.33089C22.854 7.32116 22.8443 7.31629 22.8394 7.30656C22.8346 7.29683 22.8248 7.29196 22.82 7.28223C22.8151 7.2725 22.8054 7.26764 22.8005 7.26277C22.7908 7.25304 22.7859 7.24817 22.7762 7.23844C22.7665 7.23358 22.7616 7.22385 22.7519 7.21898C22.7421 7.21412 22.7324 7.20438 22.7227 7.19952C22.7129 7.19465 22.7081 7.18979 22.6983 7.18492C22.6886 7.18006 22.6789 7.17519 22.6692 7.16546C22.6594 7.1606 22.6497 7.15573 22.64 7.15087C22.6302 7.146 22.6205 7.14113 22.6108 7.13627C22.601 7.1314 22.5913 7.12654 22.5816 7.12167C22.5718 7.11681 22.5621 7.11681 22.5524 7.11194C22.5427 7.10708 22.5281 7.10221 22.5183 7.10221C22.5086 7.10221 22.4989 7.09735 22.494 7.09735C22.4794 7.09248 22.4697 7.09248 22.4551 7.09248C22.4502 7.09248 22.4453 7.08761 22.4356 7.08761L5.90284 4.80572V2.4995C5.90284 2.47518 5.90284 2.45085 5.89798 2.43139C5.89798 2.42652 5.89798 2.42166 5.89311 2.41193C5.89311 2.39733 5.88825 2.38273 5.88825 2.36814C5.88338 2.35354 5.88338 2.34381 5.87852 2.32921C5.87852 2.31948 5.87365 2.31462 5.87365 2.30489C5.86879 2.29029 5.86392 2.27569 5.85905 2.2611C5.85905 2.25623 5.85419 2.2465 5.85419 2.24163C5.84932 2.22704 5.84446 2.21731 5.83473 2.20271C5.82986 2.19785 5.82986 2.18812 5.825 2.18325C5.82013 2.17352 5.81527 2.16379 5.80553 2.15406C5.80067 2.14433 5.7958 2.13946 5.79094 2.12973C5.78607 2.12 5.78121 2.11513 5.77634 2.1054C5.77148 2.09567 5.76175 2.08594 5.75688 2.07621C5.75202 2.07134 5.74715 2.06648 5.74228 2.06161C5.73255 2.05188 5.72282 2.04215 5.71309 2.03242C5.70823 2.02756 5.70336 2.02269 5.69849 2.01782C5.68876 2.00809 5.67903 1.99836 5.66444 1.98863C5.65957 1.98377 5.64984 1.9789 5.64498 1.97404C5.63524 1.9643 5.62551 1.95944 5.61578 1.94971C5.60119 1.93998 5.58659 1.93025 5.57686 1.92538C5.57199 1.92052 5.56713 1.92052 5.56226 1.91565C5.5428 1.90592 5.51847 1.89619 5.49901 1.88646L1.91318 0.378171C1.57747 0.237073 1.1931 0.392768 1.052 0.728483C0.910902 1.0642 1.0666 1.44857 1.40231 1.58967L4.58431 2.93253V5.91018V6.38212V10.002V13.2375V17.3245C4.58431 18.6868 5.60605 19.8156 6.92459 19.9859C6.68618 20.3849 6.54508 20.8519 6.54508 21.3482C6.54508 22.8127 7.73711 23.9999 9.19675 23.9999C10.6564 23.9999 11.8484 22.8079 11.8484 21.3482C11.8484 20.8617 11.717 20.3995 11.4835 20.0102H17.3901C17.1566 20.4043 17.0252 20.8617 17.0252 21.3482C17.0252 22.8127 18.2173 23.9999 19.6769 23.9999C21.1365 23.9999 22.3286 22.8079 22.3286 21.3482C22.3286 19.8886 21.1365 18.6966 19.6769 18.6966H7.27003C6.51102 18.6966 5.89798 18.0786 5.89798 17.3245V15.5438C6.29694 15.7773 6.76889 15.9135 7.27003 15.9135ZM10.5396 21.3434C10.5396 22.0829 9.93629 22.6814 9.20161 22.6814C8.46693 22.6814 7.86362 22.078 7.86362 21.3434C7.86362 20.6087 8.46693 20.0054 9.20161 20.0054C9.93629 20.0054 10.5396 20.6038 10.5396 21.3434ZM21.0198 21.3434C21.0198 22.0829 20.4165 22.6814 19.6818 22.6814C18.9471 22.6814 18.3438 22.078 18.3438 21.3434C18.3438 20.6087 18.9471 20.0054 19.6818 20.0054C20.4165 20.0054 21.0198 20.6038 21.0198 21.3434ZM20.3143 14.5999H7.27003C6.51102 14.5999 5.89798 13.9819 5.89798 13.2278V9.99228V6.37239V6.12912L21.6863 8.30397V13.2229C21.6863 13.9868 21.0684 14.5999 20.3143 14.5999Z" fill="#C6A464" stroke="#C6A464" stroke-width="0.5" />
</symbol><symbol viewBox="0 0 31 31" fill="none" id="icon-brands">
<circle cx="15.5" cy="15.5" r="14.8" stroke="black" stroke-width="1.4" />
<path d="M10.535 11.745V19.688C10.535 19.7833 10.5653 19.8613 10.626 19.922C10.6953 19.974 10.7733 20 10.86 20C10.9467 20 11.0203 19.974 11.081 19.922C11.1417 19.87 11.172 19.792 11.172 19.688V11.745H12.771C12.8663 11.745 12.94 11.7147 12.992 11.654C13.0527 11.5933 13.083 11.5197 13.083 11.433C13.083 11.2163 12.979 11.108 12.771 11.108H8.949C8.85367 11.108 8.77567 11.1427 8.715 11.212C8.663 11.2727 8.637 11.3463 8.637 11.433C8.637 11.5197 8.663 11.5933 8.715 11.654C8.77567 11.7147 8.85367 11.745 8.949 11.745H10.535ZM20.9669 19.675V11.433C20.9669 11.329 20.9366 11.2423 20.8759 11.173C20.8239 11.1037 20.7589 11.069 20.6809 11.069C20.5596 11.069 20.4556 11.1383 20.3689 11.277L18.1069 14.956L15.8449 11.277C15.7669 11.1383 15.6672 11.069 15.5459 11.069C15.3552 11.069 15.2599 11.1903 15.2599 11.433V19.675C15.2599 19.779 15.2902 19.8613 15.3509 19.922C15.4116 19.974 15.4852 20 15.5719 20C15.7886 20 15.8969 19.8917 15.8969 19.675V12.564L17.8339 15.723C17.9119 15.853 18.0029 15.918 18.1069 15.918C18.2109 15.918 18.3019 15.853 18.3799 15.723L20.3299 12.564V19.675C20.3299 19.779 20.3602 19.8613 20.4209 19.922C20.4902 19.974 20.5639 20 20.6419 20C20.8586 20 20.9669 19.8917 20.9669 19.675Z" fill="black" />
<path d="M10.535 11.745H11.035V11.245H10.535V11.745ZM10.626 19.922L10.2724 20.2756L10.2976 20.3007L10.326 20.322L10.626 19.922ZM11.081 19.922L11.4064 20.3016L11.4064 20.3016L11.081 19.922ZM11.172 11.745V11.245H10.672V11.745H11.172ZM12.992 11.654L12.6384 11.3004L12.6249 11.314L12.6124 11.3286L12.992 11.654ZM8.715 11.212L8.33869 10.8827L8.33537 10.8866L8.715 11.212ZM8.715 11.654L8.33537 11.9794L8.34787 11.994L8.36145 12.0076L8.715 11.654ZM10.035 11.745V19.688H11.035V11.745H10.035ZM10.035 19.688C10.035 19.8998 10.1072 20.1103 10.2724 20.2756L10.9796 19.5684C10.997 19.5859 11.0131 19.6095 11.0238 19.6368C11.034 19.663 11.035 19.6822 11.035 19.688H10.035ZM10.326 20.322C10.4819 20.4389 10.6651 20.5 10.86 20.5V19.5C10.8675 19.5 10.8799 19.5013 10.8946 19.5062C10.9093 19.5111 10.92 19.5175 10.926 19.522L10.326 20.322ZM10.86 20.5C11.0551 20.5 11.2472 20.4381 11.4064 20.3016L10.7556 19.5424C10.7711 19.5291 10.7911 19.517 10.8138 19.509C10.836 19.5012 10.8528 19.5 10.86 19.5V20.5ZM11.4064 20.3016C11.6092 20.1278 11.672 19.8909 11.672 19.688H10.672C10.672 19.6925 10.6712 19.6742 10.6832 19.6433C10.6964 19.6093 10.7205 19.5725 10.7556 19.5424L11.4064 20.3016ZM11.672 19.688V11.745H10.672V19.688H11.672ZM11.172 12.245H12.771V11.245H11.172V12.245ZM12.771 12.245C12.9813 12.245 13.2062 12.1724 13.3716 11.9794L12.6124 11.3286C12.6376 11.2992 12.671 11.2749 12.7074 11.2599C12.7416 11.2458 12.7659 11.245 12.771 11.245V12.245ZM13.3456 12.0076C13.5011 11.8521 13.583 11.6508 13.583 11.433H12.583C12.583 11.4168 12.5861 11.3916 12.5979 11.3629C12.6098 11.3341 12.6257 11.3132 12.6384 11.3004L13.3456 12.0076ZM13.583 11.433C13.583 11.2526 13.54 11.0246 13.3657 10.843C13.1877 10.6576 12.9574 10.608 12.771 10.608V11.608C12.7926 11.608 12.7183 11.6126 12.6443 11.5355C12.574 11.4623 12.583 11.3967 12.583 11.433H13.583ZM12.771 10.608H8.949V11.608H12.771V10.608ZM8.949 10.608C8.71522 10.608 8.49803 10.7007 8.33871 10.8827L9.09129 11.5413C9.07768 11.5568 9.05453 11.5765 9.02207 11.5909C8.99004 11.6051 8.96309 11.608 8.949 11.608V10.608ZM8.33537 10.8866C8.19889 11.0458 8.137 11.2379 8.137 11.433H9.137C9.137 11.4402 9.13581 11.457 9.128 11.4792C9.11998 11.5019 9.10787 11.5219 9.09463 11.5374L8.33537 10.8866ZM8.137 11.433C8.137 11.6281 8.19889 11.8202 8.33537 11.9794L9.09463 11.3286C9.10787 11.344 9.11998 11.3641 9.128 11.3868C9.13581 11.409 9.137 11.4258 9.137 11.433H8.137ZM8.36145 12.0076C8.52672 12.1728 8.73721 12.245 8.949 12.245V11.245C8.95478 11.245 8.97398 11.246 9.00022 11.2562C9.02749 11.2669 9.05113 11.283 9.06855 11.3004L8.36145 12.0076ZM8.949 12.245H10.535V11.245H8.949V12.245ZM20.8759 11.173L20.4759 11.473L20.4872 11.4881L20.4996 11.5023L20.8759 11.173ZM20.3689 11.277L19.9449 11.012L19.943 11.0151L20.3689 11.277ZM18.1069 14.956L17.681 15.2179L18.1069 15.9106L18.5328 15.2179L18.1069 14.956ZM15.8449 11.277L15.4091 11.5221L15.4139 11.5306L15.419 11.5389L15.8449 11.277ZM15.3509 19.922L14.9973 20.2756L15.0109 20.2891L15.0255 20.3016L15.3509 19.922ZM15.8969 12.564L16.3231 12.3026L15.3969 10.792V12.564H15.8969ZM17.8339 15.723L18.2627 15.4657L18.2601 15.4616L17.8339 15.723ZM18.3799 15.723L17.9544 15.4603L17.9511 15.4658L18.3799 15.723ZM20.3299 12.564H20.8299V10.8021L19.9044 12.3014L20.3299 12.564ZM20.4209 19.922L20.0673 20.2756L20.0925 20.3007L20.1209 20.322L20.4209 19.922ZM21.4669 19.675V11.433H20.4669V19.675H21.4669ZM21.4669 11.433C21.4669 11.2246 21.4029 11.016 21.2522 10.8437L20.4996 11.5023C20.488 11.489 20.4782 11.4723 20.4722 11.4552C20.4665 11.4389 20.4669 11.4299 20.4669 11.433H21.4669ZM21.2759 10.873C21.1415 10.6939 20.9354 10.569 20.6809 10.569V11.569C20.6428 11.569 20.597 11.5597 20.5528 11.5362C20.5104 11.5135 20.4861 11.4866 20.4759 11.473L21.2759 10.873ZM20.6809 10.569C20.3294 10.569 20.0874 10.7839 19.9449 11.012L20.7929 11.542C20.8097 11.5151 20.8115 11.5222 20.7892 11.537C20.7775 11.5449 20.7609 11.5535 20.7402 11.5599C20.7193 11.5663 20.6989 11.569 20.6809 11.569V10.569ZM19.943 11.0151L17.681 14.6941L18.5328 15.2179L20.7948 11.5389L19.943 11.0151ZM18.5328 14.6941L16.2708 11.0151L15.419 11.5389L17.681 15.2179L18.5328 14.6941ZM16.2807 11.0319C16.1458 10.7922 15.9044 10.569 15.5459 10.569V11.569C15.5279 11.569 15.5062 11.5663 15.4832 11.5591C15.4601 11.5518 15.4408 11.5417 15.4261 11.5315C15.3979 11.5118 15.3961 11.499 15.4091 11.5221L16.2807 11.0319ZM15.5459 10.569C15.337 10.569 15.1029 10.6415 14.9382 10.8511C14.7916 11.0377 14.7599 11.2598 14.7599 11.433H15.7599C15.7599 11.3635 15.7758 11.4036 15.7245 11.4689C15.6959 11.5054 15.6574 11.5345 15.616 11.552C15.5777 11.5683 15.5505 11.569 15.5459 11.569V10.569ZM14.7599 11.433V19.675H15.7599V11.433H14.7599ZM14.7599 19.675C14.7599 19.8816 14.8236 20.1018 14.9973 20.2756L15.7044 19.5684C15.7265 19.5905 15.7426 19.6168 15.7518 19.6419C15.7604 19.6653 15.7599 19.6787 15.7599 19.675H14.7599ZM15.0255 20.3016C15.1847 20.4381 15.3768 20.5 15.5719 20.5V19.5C15.5791 19.5 15.5959 19.5012 15.6181 19.509C15.6408 19.517 15.6608 19.5291 15.6763 19.5424L15.0255 20.3016ZM15.5719 20.5C15.7573 20.5 15.9882 20.4533 16.1692 20.2723C16.3502 20.0913 16.3969 19.8604 16.3969 19.675H15.3969C15.3969 19.7063 15.3894 19.6379 15.4621 19.5652C15.5348 19.4925 15.6032 19.5 15.5719 19.5V20.5ZM16.3969 19.675V12.564H15.3969V19.675H16.3969ZM15.4706 12.8254L17.4076 15.9844L18.2601 15.4616L16.3231 12.3026L15.4706 12.8254ZM17.4051 15.9802C17.5283 16.1856 17.7544 16.418 18.1069 16.418V15.418C18.134 15.418 18.1622 15.4224 18.1894 15.4315C18.2163 15.4404 18.237 15.4522 18.2513 15.4624C18.2777 15.4812 18.2782 15.4916 18.2626 15.4658L17.4051 15.9802ZM18.1069 16.418C18.4594 16.418 18.6854 16.1856 18.8086 15.9802L17.9511 15.4658C17.9356 15.4916 17.9361 15.4812 17.9625 15.4624C17.9768 15.4522 17.9975 15.4404 18.0243 15.4315C18.0516 15.4224 18.0798 15.418 18.1069 15.418V16.418ZM18.8054 15.9856L20.7554 12.8266L19.9044 12.3014L17.9544 15.4604L18.8054 15.9856ZM19.8299 12.564V19.675H20.8299V12.564H19.8299ZM19.8299 19.675C19.8299 19.8816 19.8936 20.1018 20.0673 20.2756L20.7744 19.5684C20.7965 19.5905 20.8126 19.6168 20.8218 19.6419C20.8304 19.6653 20.8299 19.6787 20.8299 19.675H19.8299ZM20.1209 20.322C20.2667 20.4313 20.4437 20.5 20.6419 20.5V19.5C20.6597 19.5 20.678 19.5032 20.6946 19.509C20.7105 19.5147 20.7193 19.5208 20.7209 19.522L20.1209 20.322ZM20.6419 20.5C20.8273 20.5 21.0582 20.4533 21.2392 20.2723C21.4202 20.0913 21.4669 19.8604 21.4669 19.675H20.4669C20.4669 19.7063 20.4594 19.6379 20.5321 19.5652C20.6048 19.4925 20.6732 19.5 20.6419 19.5V20.5Z" fill="black" />
</symbol><symbol viewBox="0 0 20 17" fill="none" id="icon-burger">
<path d="M0 0.25H20V4H0V0.25Z" fill="black" />
<path d="M0 6.5H20V10.25H0V6.5Z" fill="black" />
<path d="M0 12.75H20V16.5H0V12.75Z" fill="black" />
</symbol><symbol viewBox="0 0 32 32" fill="none" id="icon-chandeliers">
<path d="M1.26215 15.8774L0.012154 22.1274C-0.024596 22.3111 0.0229665 22.5014 0.141654 22.6462C0.260342 22.7911 0.437779 22.875 0.625029 22.875H2.50003V24.125C2.50003 26.1968 4.17822 27.875 6.25003 27.875C8.31778 27.875 10 26.1927 10 24.125V23.5C10 22.4661 10.8412 21.625 11.875 21.625H12.9976C13.58 21.6273 14.141 21.7665 14.645 22.0257C13.9568 22.4716 13.5 23.2457 13.5 24.125C13.5 25.2878 14.298 26.2676 15.375 26.5459V31.375C15.375 31.7202 15.6548 32 16 32C16.3452 32 16.625 31.7202 16.625 31.375V26.5459C17.7021 26.2676 18.5 25.2878 18.5 24.125C18.5 23.2464 18.0441 22.4728 17.3568 22.0268C17.8773 21.7605 18.4338 21.6275 19.0028 21.625H20.125C21.1589 21.625 22 22.4661 22 23.5V24.125C22 26.1927 23.6823 27.875 25.75 27.875C26.7512 27.875 27.6928 27.4848 28.4013 26.7763C29.1098 26.0678 29.5 25.1262 29.5 24.125V22.875H31.375C31.5623 22.875 31.7397 22.7911 31.8583 22.6462C31.977 22.5014 32.0246 22.3111 31.9878 22.1274L30.7378 15.8774C30.6795 15.5853 30.423 15.375 30.125 15.375H27.625C27.3271 15.375 27.0706 15.5853 27.0122 15.8774L25.7622 22.1274C25.7254 22.3111 25.773 22.5014 25.8917 22.6462C26.0103 22.7911 26.1878 22.875 26.375 22.875H28.25V24.125C28.25 24.7923 27.9898 25.42 27.5175 25.8924C27.045 26.3648 26.4173 26.625 25.75 26.625C24.3715 26.625 23.25 25.5035 23.25 24.125V23.5C23.25 22.3438 22.6184 21.3331 21.6826 20.7926C21.883 20.4942 22 20.1356 22 19.75V19.125H23.875C24.0623 19.125 24.2397 19.0411 24.3583 18.8962C24.477 18.7514 24.5246 18.5611 24.4878 18.3774L23.2378 12.1274C23.1795 11.8353 22.923 11.625 22.625 11.625H20.125C19.8271 11.625 19.5706 11.8353 19.5122 12.1274L18.2622 18.3774C18.2254 18.5611 18.273 18.7514 18.3917 18.8962C18.5103 19.0411 18.6878 19.125 18.875 19.125H20.75V19.75C20.75 20.0946 20.4697 20.375 20.125 20.375C20.125 20.375 18.9982 20.375 18.9972 20.375C18.1903 20.3786 17.377 20.5796 16.625 21.0006V14.0175C17.3525 13.7595 17.875 13.0648 17.875 12.25C17.875 11.4352 17.3525 10.7405 16.625 10.4825V7.42088C17.7021 7.14262 18.5 6.16275 18.5 5C20.2232 5 21.625 3.59812 21.625 1.875V0.625C21.625 0.279813 21.3452 0 21 0H11C10.6548 0 10.375 0.279813 10.375 0.625V1.875C10.375 3.59812 11.7769 5 13.5 5C13.5 6.16275 14.298 7.14262 15.375 7.42088V10.4825C14.6476 10.7405 14.125 11.4352 14.125 12.25C14.125 13.0648 14.6476 13.7595 15.375 14.0175V20.9985C14.658 20.5952 13.8467 20.3783 13.0025 20.375C13.0017 20.375 11.875 20.375 11.875 20.375C11.5304 20.375 11.25 20.0946 11.25 19.75V19.125H13.125C13.3123 19.125 13.4897 19.0411 13.6083 18.8962C13.727 18.7514 13.7746 18.5611 13.7378 18.3774L12.4878 12.1274C12.4295 11.8353 12.173 11.625 11.875 11.625H9.37503C9.07709 11.625 8.82059 11.8353 8.76216 12.1274L7.51216 18.3774C7.47541 18.5611 7.52297 18.7514 7.64166 18.8962C7.76034 19.0411 7.93778 19.125 8.12503 19.125H10V19.75C10 20.1356 10.1172 20.4942 10.3175 20.7926C9.38166 21.3331 8.75003 22.3438 8.75003 23.5V24.125C8.75003 25.5035 7.62853 26.625 6.25003 26.625C4.86916 26.625 3.75003 25.5059 3.75003 24.125V22.875H5.62503C5.81228 22.875 5.98966 22.7911 6.10834 22.6462C6.22703 22.5014 6.27459 22.3111 6.23784 22.1274L4.98784 15.8774C4.92947 15.5853 4.67297 15.375 4.37503 15.375H1.87503C1.57709 15.375 1.32059 15.5853 1.26215 15.8774ZM28.1374 16.625H29.6127L30.6127 21.625H27.1374L28.1374 16.625ZM20.6374 12.875H22.1127L23.1127 17.875H19.6374L20.6374 12.875ZM9.88741 12.875H11.3627L12.3627 17.875H8.88741L9.88741 12.875ZM16 25.375C15.3108 25.375 14.75 24.8143 14.75 24.125C14.75 23.4357 15.3108 22.875 16 22.875C16.6893 22.875 17.25 23.4357 17.25 24.125C17.25 24.8143 16.6893 25.375 16 25.375ZM11.625 1.875V1.25H20.375V1.875C20.375 2.90887 19.5339 3.75 18.5 3.75H13.5C12.4662 3.75 11.625 2.90887 11.625 1.875ZM14.75 4.99937H17.25C17.25 5.68862 16.6893 6.25 16 6.25C15.3108 6.25 14.75 5.68862 14.75 4.99937ZM16 11.625C16.3447 11.625 16.625 11.9054 16.625 12.25C16.625 12.5946 16.3447 12.875 16 12.875C15.6554 12.875 15.375 12.5946 15.375 12.25C15.375 11.9054 15.6554 11.625 16 11.625ZM3.86265 16.625L4.86266 21.625H1.3874L2.3874 16.625H3.86265Z" fill="black" />
</symbol><symbol viewBox="0 0 31 33" fill="none" id="icon-clock">
<path d="M22.1623 20.7925C23.9419 19.0314 24.9219 16.6899 24.9219 14.1993C24.9219 11.7087 23.9419 9.36714 22.1624 7.60607C20.3828 5.84495 18.0167 4.87505 15.5 4.87505C12.9833 4.87505 10.6172 5.84495 8.83771 7.60601C7.05812 9.36714 6.07806 11.7087 6.07806 14.1993C6.07806 16.6899 7.05812 19.0314 8.83765 20.7925C10.6172 22.5536 12.9833 23.5235 15.5 23.5235C18.0167 23.5235 20.3828 22.5536 22.1623 20.7925ZM7.30169 14.1993C7.30169 12.0322 8.15443 9.99471 9.70294 8.46233C11.2514 6.92989 13.3102 6.08598 15.5 6.08598C17.6898 6.08598 19.7486 6.92989 21.2971 8.46233C22.8456 9.99471 23.6983 12.0322 23.6983 14.1993C23.6983 16.3664 22.8456 18.4038 21.2971 19.9362C19.7486 21.4686 17.6898 22.3125 15.5 22.3125C13.3102 22.3125 11.2514 21.4686 9.70294 19.9362C8.15443 18.4038 7.30169 16.3664 7.30169 14.1993Z" fill="black" />
<path d="M15.5075 8.8916C15.8454 8.8916 16.1193 8.62054 16.1193 8.28614V7.72517C16.1193 7.39077 15.8454 7.1197 15.5075 7.1197C15.1696 7.1197 14.8956 7.39077 14.8956 7.72517V8.28614C14.8956 8.62054 15.1696 8.8916 15.5075 8.8916Z" fill="black" />
<path d="M21.4751 14.8121H22.0419C22.3799 14.8121 22.6538 14.5411 22.6538 14.2067C22.6538 13.8723 22.3799 13.6012 22.0419 13.6012H21.4751C21.1372 13.6012 20.8633 13.8723 20.8633 14.2067C20.8633 14.5411 21.1372 14.8121 21.4751 14.8121Z" fill="black" />
<path d="M9.5249 13.5864H8.95805C8.62015 13.5864 8.34624 13.8575 8.34624 14.1919C8.34624 14.5263 8.62015 14.7973 8.95805 14.7973H9.5249C9.8628 14.7973 10.1367 14.5263 10.1367 14.1919C10.1367 13.8575 9.8628 13.5864 9.5249 13.5864Z" fill="black" />
<path d="M16.1118 20.6567V15.9187C16.3643 15.8311 16.6012 15.6878 16.8027 15.4884C17.0041 15.289 17.149 15.0546 17.2375 14.8047H19.1097C19.4476 14.8047 19.7215 14.5336 19.7215 14.1992C19.7215 13.8648 19.4476 13.5937 19.1097 13.5937H17.2374C17.149 13.3439 17.0041 13.1094 16.8026 12.91C16.0843 12.1993 14.9156 12.1993 14.1973 12.91C13.4791 13.6209 13.4791 14.7775 14.1973 15.4883C14.3988 15.6877 14.6357 15.8311 14.8882 15.9186V20.6566C14.8882 20.991 15.1621 21.2621 15.5 21.2621C15.8379 21.2621 16.1118 20.9911 16.1118 20.6567ZM15.0626 13.7664C15.1794 13.6508 15.3347 13.5871 15.5 13.5871C15.6653 13.5871 15.8206 13.6508 15.9374 13.7664C16.0542 13.882 16.1185 14.0357 16.1185 14.1993C16.1185 14.3628 16.0542 14.5165 15.9374 14.6321C15.8206 14.7478 15.6653 14.8114 15.5 14.8114C15.3347 14.8114 15.1794 14.7477 15.0626 14.6321C14.9458 14.5165 14.8815 14.3628 14.8815 14.1993C14.8815 14.0357 14.9458 13.882 15.0626 13.7664Z" fill="black" />
<path d="M29.3882 27.3984H3.38608V26.1875V25.8359C3.38608 25.7367 3.38608 25.9269 3.38608 25.5925C3.38608 25.2581 3.38608 25.3831 3.38608 25.284V24.9766V14.1992C3.38608 7.58883 8.82033 2.21094 15.5 2.21094C22.1797 2.21094 27.6139 7.58883 27.6139 14.1992V25.3678C27.6139 25.7022 27.8878 25.9733 28.2257 25.9733C28.5636 25.9733 28.8376 25.7022 28.8376 25.3678V14.1992C28.8376 10.6736 27.4502 7.35894 24.9311 4.86598C22.4119 2.37302 19.0626 1 15.5 1C11.9374 1 8.58803 2.37296 6.06894 4.86598C3.54986 7.359 2.16245 10.6736 2.16245 14.1992V27.3984H1.61181C1.27391 27.3984 1 27.6695 1 28.0039V31.3945C1 31.7289 1.27391 32 1.61181 32H29.3882C29.7261 32 30 31.7289 30 31.3945V28.0039C30 27.6695 29.7261 27.3984 29.3882 27.3984ZM28.7764 30.7891H2.22363V28.6094H28.7764V30.7891Z" fill="black" />
<path d="M22.1623 20.7925C23.9419 19.0314 24.9219 16.6899 24.9219 14.1993C24.9219 11.7087 23.9419 9.36714 22.1624 7.60607C20.3828 5.84495 18.0167 4.87505 15.5 4.87505C12.9833 4.87505 10.6172 5.84495 8.83771 7.60601C7.05812 9.36714 6.07806 11.7087 6.07806 14.1993C6.07806 16.6899 7.05812 19.0314 8.83765 20.7925C10.6172 22.5536 12.9833 23.5235 15.5 23.5235C18.0167 23.5235 20.3828 22.5536 22.1623 20.7925ZM7.30169 14.1993C7.30169 12.0322 8.15443 9.99471 9.70294 8.46233C11.2514 6.92989 13.3102 6.08598 15.5 6.08598C17.6898 6.08598 19.7486 6.92989 21.2971 8.46233C22.8456 9.99471 23.6983 12.0322 23.6983 14.1993C23.6983 16.3664 22.8456 18.4038 21.2971 19.9362C19.7486 21.4686 17.6898 22.3125 15.5 22.3125C13.3102 22.3125 11.2514 21.4686 9.70294 19.9362C8.15443 18.4038 7.30169 16.3664 7.30169 14.1993Z" stroke="black" stroke-width="0.25" />
<path d="M15.5075 8.8916C15.8454 8.8916 16.1193 8.62054 16.1193 8.28614V7.72517C16.1193 7.39077 15.8454 7.1197 15.5075 7.1197C15.1696 7.1197 14.8956 7.39077 14.8956 7.72517V8.28614C14.8956 8.62054 15.1696 8.8916 15.5075 8.8916Z" stroke="black" stroke-width="0.25" />
<path d="M21.4751 14.8121H22.0419C22.3799 14.8121 22.6538 14.5411 22.6538 14.2067C22.6538 13.8723 22.3799 13.6012 22.0419 13.6012H21.4751C21.1372 13.6012 20.8633 13.8723 20.8633 14.2067C20.8633 14.5411 21.1372 14.8121 21.4751 14.8121Z" stroke="black" stroke-width="0.25" />
<path d="M9.5249 13.5864H8.95805C8.62015 13.5864 8.34624 13.8575 8.34624 14.1919C8.34624 14.5263 8.62015 14.7973 8.95805 14.7973H9.5249C9.8628 14.7973 10.1367 14.5263 10.1367 14.1919C10.1367 13.8575 9.8628 13.5864 9.5249 13.5864Z" stroke="black" stroke-width="0.25" />
<path d="M16.1118 20.6567V15.9187C16.3643 15.8311 16.6012 15.6878 16.8027 15.4884C17.0041 15.289 17.149 15.0546 17.2375 14.8047H19.1097C19.4476 14.8047 19.7215 14.5336 19.7215 14.1992C19.7215 13.8648 19.4476 13.5937 19.1097 13.5937H17.2374C17.149 13.3439 17.0041 13.1094 16.8026 12.91C16.0843 12.1993 14.9156 12.1993 14.1973 12.91C13.4791 13.6209 13.4791 14.7775 14.1973 15.4883C14.3988 15.6877 14.6357 15.8311 14.8882 15.9186V20.6566C14.8882 20.991 15.1621 21.2621 15.5 21.2621C15.8379 21.2621 16.1118 20.9911 16.1118 20.6567ZM15.0626 13.7664C15.1794 13.6508 15.3347 13.5871 15.5 13.5871C15.6653 13.5871 15.8206 13.6508 15.9374 13.7664C16.0542 13.882 16.1185 14.0357 16.1185 14.1993C16.1185 14.3628 16.0542 14.5165 15.9374 14.6321C15.8206 14.7478 15.6653 14.8114 15.5 14.8114C15.3347 14.8114 15.1794 14.7477 15.0626 14.6321C14.9458 14.5165 14.8815 14.3628 14.8815 14.1993C14.8815 14.0357 14.9458 13.882 15.0626 13.7664Z" stroke="black" stroke-width="0.25" />
<path d="M29.3882 27.3984H3.38608V26.1875V25.8359C3.38608 25.7367 3.38608 25.9269 3.38608 25.5925C3.38608 25.2581 3.38608 25.3831 3.38608 25.284V24.9766V14.1992C3.38608 7.58883 8.82033 2.21094 15.5 2.21094C22.1797 2.21094 27.6139 7.58883 27.6139 14.1992V25.3678C27.6139 25.7022 27.8878 25.9733 28.2257 25.9733C28.5636 25.9733 28.8376 25.7022 28.8376 25.3678V14.1992C28.8376 10.6736 27.4502 7.35894 24.9311 4.86598C22.4119 2.37302 19.0626 1 15.5 1C11.9374 1 8.58803 2.37296 6.06894 4.86598C3.54986 7.359 2.16245 10.6736 2.16245 14.1992V27.3984H1.61181C1.27391 27.3984 1 27.6695 1 28.0039V31.3945C1 31.7289 1.27391 32 1.61181 32H29.3882C29.7261 32 30 31.7289 30 31.3945V28.0039C30 27.6695 29.7261 27.3984 29.3882 27.3984ZM28.7764 30.7891H2.22363V28.6094H28.7764V30.7891Z" stroke="black" stroke-width="0.25" />
</symbol><symbol viewBox="0 0 18 29" fill="none" id="icon-desk">
<path d="M17.9024 11.6192C17.2966 10.463 15.2908 6.32607 14.9211 1.63375C14.8488 0.717652 14.0306 0 13.0581 0H4.94192C3.96941 0 3.15118 0.717652 3.07893 1.634C2.70925 6.32607 0.703627 10.463 0.0976273 11.6192C-0.0465953 11.8943 -0.0301883 12.2141 0.141291 12.4744C0.31277 12.735 0.609419 12.8905 0.934383 12.8905H8.32255V17.0926C8.32255 18.2179 8.31502 18.6939 8.31502 19.7051C8.31502 20.7166 8.31502 20.8205 8.32255 21.3798V25.0303H5.86097C4.27823 25.0303 2.9879 26.234 2.96488 27.722H1.48296C1.10877 27.722 0.805509 28.0083 0.805509 28.361C0.805509 28.7139 1.10877 29 1.48296 29H16.517C16.8912 29 17.1945 28.7139 17.1945 28.361C17.1945 28.0083 16.8912 27.722 16.517 27.722H15.0351C15.0121 26.234 13.7218 25.0303 12.139 25.0303H9.67745V21.3795C9.67745 20.4487 9.67745 20.2112 9.67745 19.2C9.67745 18.1885 9.67745 17.9857 9.67745 17.0924V12.8903H17.0656C17.3906 12.8903 17.6872 12.7348 17.8587 12.4744C18.0302 12.2141 18.0466 11.8943 17.9024 11.6192ZM13.68 27.722H4.32004C4.3428 26.9387 5.02528 26.3081 5.86097 26.3081H12.139C12.9747 26.3081 13.6572 26.9387 13.68 27.722ZM4.43013 1.72886C4.44998 1.47599 4.67491 1.27804 4.94192 1.27804H6.62972C6.45189 4.83935 4.90805 10.0599 4.42722 11.6125H1.60178C2.42927 9.91833 4.08929 6.05399 4.43013 1.72886ZM13.5725 11.6125C13.3526 10.9038 12.9109 9.43157 12.482 7.7117C12.3962 7.36823 12.0313 7.15555 11.6675 7.23618C11.3033 7.31706 11.0776 7.66103 11.1633 8.00451C11.5359 9.49872 11.9183 10.8105 12.162 11.6125H5.83928C6.42993 9.6762 7.82425 4.78543 7.98594 1.27804H10.0141C10.0358 1.74658 10.0805 2.25705 10.1472 2.80296C10.19 3.15368 10.5269 3.40479 10.8979 3.3646C11.2695 3.32416 11.5362 3.00715 11.4931 2.65644C11.4325 2.16169 11.3914 1.7004 11.3703 1.27804H13.0583C13.3251 1.27804 13.55 1.47599 13.5699 1.72861C13.9107 6.05399 15.5707 9.91833 16.3982 11.6125H13.5725Z" fill="black" />
</symbol><symbol viewBox="0 0 32 31" fill="none" id="icon-fixtures">
<path d="M14.9844 28.4155C14.9844 28.7008 15.2157 28.9321 15.501 28.9321C16.9269 28.9304 18.0824 27.7749 18.0841 26.349C18.0841 26.0637 17.8528 25.8324 17.5675 25.8324C17.2822 25.8324 17.0508 26.0637 17.0508 26.349C17.0508 27.205 16.357 27.8989 15.501 27.8989C15.2156 27.8989 14.9844 28.1301 14.9844 28.4155Z" fill="black" />
<path d="M28.417 16.0161C28.1317 16.0161 27.9004 16.2474 27.9004 16.5327C27.9004 17.3887 27.2065 18.0826 26.3506 18.0826C26.0653 18.0826 25.8339 18.3139 25.8339 18.5992C25.8339 18.8845 26.0653 19.1158 26.3506 19.1158C27.7764 19.1141 28.932 17.9586 28.9337 16.5327C28.9337 16.2474 28.7023 16.0161 28.417 16.0161Z" fill="black" />
<path d="M4.13477 21.6989C4.13477 21.9842 4.36608 22.2156 4.65139 22.2156C6.07726 22.2139 7.2328 21.0583 7.23448 19.6325C7.23448 19.3472 7.00317 19.1158 6.71786 19.1158C6.43256 19.1158 6.20124 19.3472 6.20124 19.6325C6.20124 20.4884 5.50736 21.1823 4.65139 21.1823C4.36602 21.1823 4.13477 21.4136 4.13477 21.6989Z" fill="black" />
<path d="M30.7341 14.9808C30.266 13.6567 29.2243 12.615 27.9002 12.1469V10.8496C27.9002 10.5643 27.6689 10.3329 27.3835 10.3329H26.8669V2.58323H30.4834C30.7687 2.58323 31.0001 2.35191 31.0001 2.06659V0.516647C31.0001 0.231329 30.7687 0 30.4834 0H0.517902C0.232583 0 0.00125484 0.231329 0.00125484 0.516647V2.06659C0.00125484 2.35191 0.232583 2.58323 0.517902 2.58323H4.13443V13.4328H3.61778C3.33246 13.4328 3.10114 13.6641 3.10114 13.9495V15.2468C0.68 16.1028 -0.58882 18.7594 0.267199 21.1806C1.12322 23.6017 3.77988 24.8705 6.20102 24.0145C8.62215 23.1585 9.89097 20.5018 9.03495 18.0807C8.56681 16.7565 7.52518 15.7149 6.20102 15.2468V13.9495C6.20102 13.6641 5.96969 13.4328 5.68437 13.4328H5.16772V2.58323H14.984V20.1492H14.4674C14.182 20.1492 13.9507 20.3806 13.9507 20.6659V21.9632C11.5296 22.8192 10.2608 25.4759 11.1168 27.897C11.9728 30.3181 14.6295 31.587 17.0506 30.7309C19.4717 29.8749 20.7406 27.2183 19.8845 24.7971C19.4164 23.4729 18.3748 22.4313 17.0506 21.9632V20.6659C17.0506 20.3806 16.8193 20.1492 16.534 20.1492H16.0173V2.58323H25.8336V10.3329H25.3169C25.0316 10.3329 24.8003 10.5643 24.8003 10.8496V12.1469C22.3792 13.0029 21.1103 15.6596 21.9664 18.0807C22.8224 20.5018 25.479 21.7707 27.9002 20.9146C30.3213 20.0586 31.5901 17.402 30.7341 14.9808ZM4.13443 14.4661H5.16772V15.0117C4.82435 14.9731 4.47781 14.9731 4.13443 15.0117V14.4661ZM5.3625 16.093C5.42656 16.1054 5.49166 16.1132 5.55521 16.1292C7.15255 16.5416 8.26838 17.9828 8.2676 19.6326C8.26644 21.6299 6.6463 23.2481 4.64895 23.247C2.65159 23.2458 1.03339 21.6257 1.03455 19.6283C1.03552 17.9814 2.14909 16.5431 3.74333 16.1297C4.27367 15.998 4.82667 15.9856 5.3625 16.093ZM14.984 21.1825H16.0173V21.7281C15.6739 21.6895 15.3274 21.6895 14.984 21.7281V21.1825ZM16.2121 22.8094C16.2761 22.8218 16.3412 22.8296 16.4048 22.8456C18.0021 23.258 19.118 24.6992 19.1172 26.349C19.116 28.3463 17.4959 29.9646 15.4985 29.9634C13.5012 29.9622 11.883 28.3421 11.8841 26.3447C11.8851 24.6978 12.9987 23.2595 14.5929 22.8461C15.1233 22.7144 15.6763 22.702 16.2121 22.8094ZM1.03455 1.54994V1.03329H29.9668V1.54994H1.03455ZM25.8336 11.3662H26.8669V11.9118C26.5235 11.8733 26.177 11.8733 25.8336 11.9118V11.3662ZM26.3481 20.1471C24.3508 20.1459 22.7326 18.5258 22.7337 16.5284C22.7347 14.8815 23.8483 13.4432 25.4425 13.0298C25.9729 12.8982 26.5258 12.8857 27.0617 12.9932C27.1257 13.0056 27.1908 13.0133 27.2544 13.0293C28.8517 13.4417 29.9675 14.8829 29.9668 16.5327C29.9656 18.5301 28.3455 20.1483 26.3481 20.1471Z" fill="black" />
</symbol><symbol viewBox="0 0 21 31" fill="none" id="icon-interior">
<path d="M0.233876 15.6776C0.23293 15.6812 0.231984 15.685 0.231274 15.6885C0.230801 15.6902 0.230328 15.6916 0.230092 15.6932C0.121533 16.1213 0.050343 16.5617 0.0191235 17.0026C-0.0444981 17.8949 0.050816 18.7823 0.302228 19.6401C0.465893 20.1992 0.694836 20.7387 0.98267 21.2437L4.3241 27.4095C3.50861 27.5879 2.89605 28.3154 2.89605 29.1836C2.89605 30.1852 3.71083 31 4.71245 31H15.6109C16.6125 31 17.4273 30.1852 17.4273 29.1836C17.4273 28.3154 16.8147 27.5879 15.9992 27.4095L19.3404 21.2437C19.607 20.7763 19.8239 20.2775 19.9847 19.7612C19.9854 19.7593 19.9859 19.7574 19.9866 19.7555C19.9868 19.7544 19.9873 19.7532 19.9875 19.752C20.2638 18.8596 20.3704 17.9349 20.3042 17.0023C20.273 16.5709 20.2049 16.1412 20.1015 15.7254C20.1008 15.7226 20.1001 15.7197 20.0994 15.7166C19.374 12.8102 17.0065 10.6473 14.0956 10.156L15.4948 3.63281H15.6109C16.6144 3.63281 17.4273 2.81992 17.4273 1.81641C17.4273 0.814781 16.6125 0 15.6109 0H4.71245C3.70894 0 2.89605 0.812889 2.89605 1.81641C2.89605 2.81803 3.71083 3.63281 4.71245 3.63281H4.82858L6.22802 10.1563C3.33407 10.6454 0.970608 12.7927 0.233876 15.6776ZM19.0841 16.9571C19.0881 17.0009 19.0931 17.0447 19.0964 17.0886C19.1479 17.8176 19.0722 18.5411 18.874 19.2418C18.8714 19.2442 18.8686 19.2468 18.866 19.2492C17.9973 20.0415 16.9179 20.0415 16.0492 19.2492C14.7185 18.0359 12.9307 18.0359 11.6004 19.2492C10.7317 20.0415 9.65223 20.0415 8.78352 19.2492C7.45315 18.0359 5.66536 18.0359 4.33475 19.2492C3.43198 20.0725 2.30359 20.0334 1.42731 19.1621C1.24543 18.4857 1.17685 17.7892 1.22699 17.0886C1.23101 17.0333 1.23716 16.978 1.2426 16.9226C2.48996 17.7033 3.99322 17.5666 5.15071 16.5111C6.01942 15.7188 7.09885 15.7188 7.96756 16.5111C8.63263 17.1177 9.41217 17.4209 10.1919 17.4209C10.9715 17.4209 11.751 17.1177 12.4163 16.5111C13.285 15.7188 14.3645 15.7188 15.2332 16.5111C16.3727 17.5503 17.8478 17.6986 19.0841 16.9571ZM16.2164 29.1836C16.2164 29.5175 15.9448 29.7891 15.6109 29.7891H4.71245C4.3785 29.7891 4.10698 29.5175 4.10698 29.1836C4.10698 28.8496 4.3785 28.5781 4.71245 28.5781H7.7398C8.07423 28.5781 8.34527 28.3071 8.34527 27.9727C8.34527 27.6382 8.07423 27.3672 7.7398 27.3672H5.67837L2.2104 20.9674C2.44715 21.0251 2.68744 21.0549 2.92774 21.0549C3.70421 21.0549 4.48233 20.7534 5.15071 20.1439C6.01942 19.3516 7.09885 19.3516 7.96756 20.1439C9.29793 21.3572 11.0857 21.3572 12.4163 20.1439C13.285 19.3516 14.3645 19.3516 15.2332 20.1439C15.8983 20.7505 16.6773 21.0538 17.4571 21.0538C17.6737 21.0538 17.8904 21.0294 18.1047 20.9826L14.6447 27.3672H12.5835C12.2491 27.3672 11.9781 27.6382 11.9781 27.9727C11.9781 28.3071 12.2491 28.5781 12.5835 28.5781H15.6109C15.9448 28.5781 16.2164 28.8496 16.2164 29.1836ZM4.10698 1.81641C4.10698 1.48198 4.37826 1.21094 4.71245 1.21094H15.6109C15.9448 1.21094 16.2164 1.48245 16.2164 1.81641C16.2164 2.15083 15.9451 2.42188 15.6109 2.42188C14.8134 2.42188 5.40993 2.42188 4.71245 2.42188C4.3785 2.42188 4.10698 2.15036 4.10698 1.81641ZM6.06695 3.63281H14.2562L12.7725 10.5491C12.7359 10.7201 12.7749 10.8987 12.8797 11.0387C12.9842 11.1787 13.1443 11.2667 13.3186 11.2799C15.8931 11.4755 18.0607 13.2153 18.8232 15.6537C17.9621 16.4077 16.9037 16.3957 16.0492 15.6164C14.7185 14.4031 12.9307 14.4031 11.6004 15.6164C10.7317 16.4084 9.65223 16.4084 8.78352 15.6164C7.45291 14.4031 5.66512 14.4031 4.33475 15.6164C3.4658 16.4087 2.38636 16.4084 1.51742 15.6159C1.51624 15.6147 1.51482 15.6135 1.5134 15.6123C2.28798 13.1969 4.44922 11.4741 7.00448 11.2799C7.17879 11.2667 7.33891 11.1787 7.44369 11.0387C7.54846 10.8987 7.58725 10.7201 7.55059 10.5493L6.06695 3.63281Z" fill="black" />
</symbol><symbol viewBox="0 0 20 32" fill="none" id="icon-lamp">
<path d="M14.1009 9.50004C13.6992 9.50004 13.3735 9.83029 13.3735 10.2377C13.3735 10.5834 13.0962 10.8647 12.7553 10.8647C12.4144 10.8647 12.137 10.5834 12.137 10.2377C12.137 9.83029 11.8113 9.50004 11.4097 9.50004C11.0081 9.50004 10.6824 9.83029 10.6824 10.2377C10.6824 10.5834 10.405 10.8647 10.0641 10.8647C9.72319 10.8647 9.44586 10.5834 9.44586 10.2377C9.44586 9.83029 9.12016 9.50004 8.71853 9.50004C8.3169 9.50004 7.99119 9.83029 7.99119 10.2377C7.99119 10.5834 7.71387 10.8647 7.37294 10.8647C7.03201 10.8647 6.75469 10.5834 6.75469 10.2377C6.75469 9.83029 6.42898 9.50004 6.02735 9.50004C5.62572 9.50004 5.30002 9.83029 5.30002 10.2377C5.30002 11.3969 6.22992 12.3399 7.37294 12.3399C7.88599 12.3399 8.35622 12.1499 8.71853 11.8356C9.08084 12.1499 9.55106 12.3399 10.0641 12.3399C10.5772 12.3399 11.0474 12.1499 11.4097 11.8356C11.772 12.1499 12.2422 12.3399 12.7553 12.3399C13.8983 12.3399 14.8282 11.3969 14.8282 10.2377C14.8282 9.83029 14.5025 9.50004 14.1009 9.50004Z" fill="black" />
<path d="M20 10.1421C20 7.38758 18.9296 4.81045 16.9861 2.88556C15.0434 0.961368 12.48 -0.0621984 9.75784 0.00292689C4.28773 0.134365 -0.0890326 4.75876 0.00137581 10.3112C0.0405713 12.744 0.943299 15.0829 2.54298 16.8969C3.63047 18.1303 4.44618 19.5698 4.93378 21.1008C4.66785 21.2106 4.4802 21.4749 4.4802 21.784C4.4802 22.1913 4.8059 22.5216 5.20753 22.5216H5.28722C5.40388 23.1695 5.46354 23.827 5.46354 24.4837V26.1817C5.46354 28.4674 7.11628 30.3684 9.27339 30.7223V31.2624C9.27339 31.6698 9.59909 32 10.0007 32C10.4023 32 10.7281 31.6698 10.7281 31.2624V30.7223C12.8847 30.3682 14.537 28.4673 14.537 26.1817V24.4822C14.537 23.8264 14.5951 23.1693 14.7086 22.5216H14.7523C15.1539 22.5216 15.4796 22.1913 15.4796 21.784C15.4796 21.4847 15.3036 21.2276 15.0511 21.112C15.5309 19.5745 16.3348 18.1502 17.4066 16.9534C19.079 15.0857 20 12.6667 20 10.1421ZM13.0824 26.1817C13.0824 27.905 11.6999 29.3071 10.0007 29.3071C8.30102 29.3071 6.9182 27.905 6.9182 26.1817V25.3932H13.0823V26.1817H13.0824ZM13.0961 23.918H6.90409C6.88295 23.4506 6.83556 22.9842 6.76241 22.5216H13.2343C13.1629 22.9844 13.1168 23.4508 13.0961 23.918ZM9.09583 21.0464V19.5298C9.09583 19.0238 9.50178 18.6122 10.0007 18.6122C10.2421 18.6122 10.4692 18.7076 10.6393 18.8802C10.8105 19.0542 10.9047 19.2849 10.9047 19.5298V21.0464H9.09583ZM13.5524 21.0464H12.3593V19.5298C12.3593 18.9329 12.1449 18.369 11.7527 17.9279L13.5825 14.4607C13.7721 14.1015 13.6386 13.6546 13.2844 13.4623C12.9305 13.2702 12.4896 13.4054 12.3 13.7645L10.4928 17.1893C10.3328 17.1549 10.1682 17.1369 10.0007 17.1369C9.83802 17.1369 9.67908 17.1537 9.52563 17.1856L7.72023 13.7645C7.53079 13.4054 7.0899 13.27 6.73579 13.4623C6.38167 13.6545 6.24818 14.1016 6.43775 14.4607L8.2609 17.9154C7.87634 18.3413 7.64129 18.9081 7.64129 19.5298V21.0463H6.43794C5.9075 19.1712 4.94407 17.4068 3.62751 15.9135C2.26066 14.3636 1.48945 12.3655 1.45605 10.287C1.3787 5.54189 5.11842 1.59006 9.79248 1.47775C12.1166 1.42162 14.3097 2.29681 15.9699 3.94094C17.6308 5.58595 18.5455 7.78815 18.5455 10.1421C18.5455 12.2993 17.7586 14.3661 16.3299 15.9617C15.0294 17.4136 14.0774 19.1615 13.5524 21.0464Z" fill="black" />
</symbol><symbol viewBox="0 0 220 210" id="icon-liked">
  <metadata id="icon-liked_metadata26">
    <rdf:RDF>
      <cc:Work rdf:about="">
        <dc:format>image/svg+xml</dc:format>
        <dc:type rdf:resource="http://purl.org/dc/dcmitype/StillImage"></dc:type>
        <dc:title></dc:title>
      </cc:Work>
    </rdf:RDF>
  </metadata>
  <defs id="icon-liked_defs24"></defs>
  <sodipodi:namedview pagecolor="#ffffff" bordercolor="#666666" borderopacity="1" objecttolerance="10" gridtolerance="10" guidetolerance="10" inkscape:pageopacity="0" inkscape:pageshadow="2" inkscape:window-width="1920" inkscape:window-height="1017" id="icon-liked_namedview22" showgrid="false" inkscape:zoom="3.1786133" inkscape:cx="143.01069" inkscape:cy="95.891484" inkscape:window-x="1358" inkscape:window-y="-8" inkscape:window-maximized="1" inkscape:current-layer="svg20"></sodipodi:namedview>
  <path style="fill:#c7a76b" d="m 100.36858,207.34948 c 0,0 -2.014589,-4.7969 -12.249999,-14.37782 -6.7375,-6.30668 -15.625,-14.17369 -19.75,-17.48226 -4.125,-3.30857 -12.92038,-11.35105 -19.54529,-17.87218 C 29.136151,138.23847 14.982471,120.0625 9.3637414,106.94378 6.3044414,99.800885 7.7121496,98.720401 5.3159596,98.444201 L 4.3721518,95.298175 0.36858139,70.760625 1.3123892,50.000124 3.1185814,43.077047 c 0,0 3.35652,-1.537342 6.9201396,-8.710854 4.77192,-9.605785 14.40667,-20.188697 23.14461,-25.4222939 3.82588,-2.291513 5.4717,-3.953658 5.875,-5.933274 L 45.59603,1.5190355 60.927161,0.26062508 74.685269,0.57522767 80.979148,3.9544329 c 0,0 3.090513,2.4374572 8.685323,5.3779782 3.73775,1.9644819 8.69702,5.6425009 11.020619,8.1733749 7.0979,7.731084 12.03406,7.596395 20.11417,-0.548836 2.83513,-2.857979 7.38555,-6.546325 10.11205,-8.1963249 3.73727,-2.26169 5.03514,-3.676784 5.27369,-5.75 l 7.55228,-2.43539743 15.07272,-0.31460259 16.96034,0.94380782 5.94517,3.3792052 c 0.42398,1.953213 2.36443,2.33595 6.69721,5.1769867 9.36854,6.1430242 19.38806,17.2381392 23.7489,26.2983252 2.80287,5.823324 3.47268,6.724425 4.06934,8.335829 l 2.56461,6.926205 1.57301,19.49014 -1.25841,16.658717 -1.6643,8.205052 c -2.07303,0.5203 -3.06078,4.521567 -6.03339,10.971267 -8.03882,17.44187 -23.80481,36.58948 -50.09028,60.83408 -5.19949,4.79579 -10.92705,9.80186 -12.72791,11.12458 -1.80085,1.32273 -8.88835,7.67639 -15.75,14.11925 -10.42797,9.79152 -12.47571,12.19211 -12.47571,14.62541 l -5.03364,1.65273 -4.96636,1.25841 -5.28096,-0.62921 z m 16.39492,-25.6109 c 3.59157,-1.87303 6.8945,-4.97119 37.795,-35.45184 14.52861,-14.33121 27.03433,-27.59292 30.17581,-32 5.13687,-7.20636 11.15795,-19.446259 14.27859,-29.026119 2.04664,-6.28284 1.99422,-21.92509 -0.10054,-29.999996 -1.78005,-6.861758 -7.26907,-17.887946 -10.88858,-21.872646 -3.43804,-3.784916 -12.77636,-10.400295 -16.62369,-11.776412 -5.01388,-1.793374 -20.24771,-1.705275 -24.67047,0.142673 -6.44524,2.692993 -15.00106,11.199699 -22.46172,22.332774 -8.12786,12.128684 -9.1714,13.173611 -13.15619,13.173611 -4.45952,0 -6.37261,-1.531274 -10.31324,-8.254939 -5.507119,-9.39646 -12.812729,-17.225095 -21.232569,-22.752634 -8.6423,-5.673585 -11.47682,-6.430033 -21.64823,-5.777271 -6.61278,0.424382 -7.997,0.915529 -14.89416,5.284705 -9.64538,6.110111 -10.32834,6.898179 -16.64196,19.20318 -4.54051,8.849267 -5.36259,11.363016 -6.19577,18.945469 -1.56587,14.250256 -0.0159,22.176826 6.85116,35.036206 8.47348,15.867639 14.77868,23.454799 40.56729,48.815279 36.395639,35.79143 36.029599,35.48768 42.764349,35.48768 1.925,0 4.80272,-0.67938 6.39492,-1.50972 z" id="icon-liked_path36" inkscape:connector-curvature="0" sodipodi:nodetypes="sssssccccssssccccccsssccccsssccccsscsscccscssssssssssssssscssc" />
</symbol><symbol viewBox="0 0 33 35" fill="none" id="icon-sale">
<path d="M23.4688 10.2811C23.105 9.90951 22.515 9.90951 22.1512 10.2811L9.85377 22.8423C9.48994 23.2139 9.48994 23.8165 9.85377 24.1881C10.0357 24.3739 10.2741 24.4669 10.5125 24.4669C10.7509 24.4669 10.9894 24.374 11.1713 24.1881L23.4687 11.627C23.8327 11.2553 23.8327 10.6528 23.4688 10.2811Z" fill="black" />
<path d="M12.9346 8.66983C11.051 8.66983 9.51846 10.2352 9.51846 12.1592C9.51846 14.0833 11.051 15.6486 12.9346 15.6486C14.8183 15.6486 16.3508 14.0833 16.3508 12.1592C16.3508 10.2352 14.8183 8.66983 12.9346 8.66983ZM12.9346 13.7453C12.0784 13.7453 11.3819 13.0338 11.3819 12.1592C11.3819 11.2846 12.0784 10.5731 12.9346 10.5731C13.7908 10.5731 14.4874 11.2846 14.4874 12.1592C14.4874 13.0338 13.7908 13.7453 12.9346 13.7453Z" fill="black" />
<path d="M20.388 18.8207C18.5043 18.8207 16.9718 20.386 16.9718 22.3101C16.9718 24.2341 18.5043 25.7995 20.388 25.7995C22.2716 25.7995 23.8041 24.2341 23.8041 22.3101C23.8041 20.386 22.2716 18.8207 20.388 18.8207ZM20.388 23.8961C19.5318 23.8961 18.8351 23.1846 18.8351 22.3101C18.8351 21.4355 19.5317 20.724 20.388 20.724C21.2442 20.724 21.9407 21.4355 21.9407 22.3101C21.9407 23.1846 21.2442 23.8961 20.388 23.8961Z" fill="black" />
<path d="M30.5054 17.9274C30.3754 17.6558 30.3754 17.3442 30.5054 17.0726L31.7103 14.5548C32.3812 13.1529 31.8496 11.4819 30.5002 10.7506L28.0765 9.43707C27.815 9.2954 27.6358 9.04326 27.5846 8.74556L27.1106 5.98513C26.8466 4.44819 25.4548 3.41541 23.9425 3.63397L21.2259 4.02648C20.9326 4.06876 20.6427 3.97247 20.43 3.76229L18.458 1.81377C17.36 0.728776 15.64 0.728712 14.542 1.81377L12.57 3.76249C12.3573 3.97273 12.0673 4.06883 11.7741 4.02668L9.05752 3.63416C7.5447 3.41547 6.15335 4.44839 5.88941 5.98532L5.4154 8.74562C5.36423 9.04339 5.18496 9.29546 4.92354 9.4372L2.49988 10.7507C1.15043 11.482 0.618878 13.1531 1.28975 14.555L2.49464 17.0727C2.62463 17.3444 2.62463 17.656 2.49464 17.9276L1.28969 20.4453C0.618815 21.8472 1.15037 23.5182 2.49982 24.2495L4.92348 25.563C5.18496 25.7047 5.36423 25.9569 5.4154 26.2546L5.88941 29.015C6.12969 30.4141 7.30423 31.3953 8.65412 31.3952C8.78707 31.3952 8.92198 31.3857 9.05758 31.3661L11.7742 30.9736C12.0672 30.9311 12.3573 31.0276 12.5701 31.2378L14.542 33.1863C15.0911 33.7288 15.7954 34.0001 16.5 34C17.2044 33.9999 17.9091 33.7287 18.458 33.1863L20.43 31.2378C20.6427 31.0276 20.9328 30.9315 21.2259 30.9736L23.9425 31.3661C25.4555 31.5847 26.8466 30.5519 27.1106 29.0149L27.5847 26.2546C27.6358 25.9569 27.8151 25.7048 28.0765 25.563L30.5002 24.2495C31.8496 23.5182 32.3812 21.8472 31.7103 20.4453L30.5054 17.9274ZM29.6268 22.5681L27.2032 23.8817C26.4304 24.3006 25.9005 25.0455 25.7493 25.9257L25.2753 28.686C25.1861 29.206 24.7154 29.5553 24.2035 29.4815L21.4868 29.089C20.6205 28.9636 19.7632 29.2484 19.1344 29.8697L17.1624 31.8182C16.791 32.1851 16.209 32.1851 15.8375 31.8182L13.8656 29.8696C13.3342 29.3445 12.6394 29.06 11.9142 29.06C11.7813 29.06 11.6473 29.0695 11.5132 29.0889L8.79654 29.4814C8.28505 29.5553 7.81401 29.206 7.72466 28.686L7.25059 25.9255C7.09941 25.0454 6.5695 24.3004 5.79671 23.8816L3.37305 22.5681C2.91646 22.3206 2.73663 21.7553 2.9636 21.281L4.16855 18.7632C4.5527 17.9604 4.5527 17.0396 4.16855 16.2368L2.9636 13.719C2.73663 13.2447 2.91646 12.6793 3.37305 12.4319L5.79671 11.1184C6.56943 10.6995 7.09941 9.95455 7.25053 9.07439L7.72454 6.31403C7.81389 5.79402 8.28448 5.44469 8.79641 5.51856L11.513 5.91107C12.3791 6.0363 13.2367 5.75162 13.8655 5.13036L15.8375 3.18183C16.2089 2.81484 16.7908 2.81484 17.1624 3.18183L19.1343 5.13036C19.7631 5.75168 20.6205 6.0363 21.4867 5.91107L24.2033 5.51856C24.7149 5.44463 25.1859 5.79402 25.2752 6.31403L25.7492 9.07446C25.9004 9.95462 26.4303 10.6996 27.2031 11.1184L29.6268 12.4319C30.0833 12.6793 30.2632 13.2447 30.0362 13.719L28.8313 16.2367C28.4471 17.0395 28.4471 17.9604 28.8313 18.7631L30.0362 21.2809C30.2632 21.7553 30.0834 22.3207 29.6268 22.5681Z" fill="black" />
<path d="M23.4688 10.2811C23.105 9.90951 22.515 9.90951 22.1512 10.2811L9.85377 22.8423C9.48994 23.2139 9.48994 23.8165 9.85377 24.1881C10.0357 24.3739 10.2741 24.4669 10.5125 24.4669C10.7509 24.4669 10.9894 24.374 11.1713 24.1881L23.4687 11.627C23.8327 11.2553 23.8327 10.6528 23.4688 10.2811Z" stroke="white" stroke-width="0.5" />
<path d="M12.9346 8.66983C11.051 8.66983 9.51846 10.2352 9.51846 12.1592C9.51846 14.0833 11.051 15.6486 12.9346 15.6486C14.8183 15.6486 16.3508 14.0833 16.3508 12.1592C16.3508 10.2352 14.8183 8.66983 12.9346 8.66983ZM12.9346 13.7453C12.0784 13.7453 11.3819 13.0338 11.3819 12.1592C11.3819 11.2846 12.0784 10.5731 12.9346 10.5731C13.7908 10.5731 14.4874 11.2846 14.4874 12.1592C14.4874 13.0338 13.7908 13.7453 12.9346 13.7453Z" stroke="white" stroke-width="0.5" />
<path d="M20.388 18.8207C18.5043 18.8207 16.9718 20.386 16.9718 22.3101C16.9718 24.2341 18.5043 25.7995 20.388 25.7995C22.2716 25.7995 23.8041 24.2341 23.8041 22.3101C23.8041 20.386 22.2716 18.8207 20.388 18.8207ZM20.388 23.8961C19.5318 23.8961 18.8351 23.1846 18.8351 22.3101C18.8351 21.4355 19.5317 20.724 20.388 20.724C21.2442 20.724 21.9407 21.4355 21.9407 22.3101C21.9407 23.1846 21.2442 23.8961 20.388 23.8961Z" stroke="white" stroke-width="0.5" />
<path d="M30.5054 17.9274C30.3754 17.6558 30.3754 17.3442 30.5054 17.0726L31.7103 14.5548C32.3812 13.1529 31.8496 11.4819 30.5002 10.7506L28.0765 9.43707C27.815 9.2954 27.6358 9.04326 27.5846 8.74556L27.1106 5.98513C26.8466 4.44819 25.4548 3.41541 23.9425 3.63397L21.2259 4.02648C20.9326 4.06876 20.6427 3.97247 20.43 3.76229L18.458 1.81377C17.36 0.728776 15.64 0.728712 14.542 1.81377L12.57 3.76249C12.3573 3.97273 12.0673 4.06883 11.7741 4.02668L9.05752 3.63416C7.5447 3.41547 6.15335 4.44839 5.88941 5.98532L5.4154 8.74562C5.36423 9.04339 5.18496 9.29546 4.92354 9.4372L2.49988 10.7507C1.15043 11.482 0.618878 13.1531 1.28975 14.555L2.49464 17.0727C2.62463 17.3444 2.62463 17.656 2.49464 17.9276L1.28969 20.4453C0.618815 21.8472 1.15037 23.5182 2.49982 24.2495L4.92348 25.563C5.18496 25.7047 5.36423 25.9569 5.4154 26.2546L5.88941 29.015C6.12969 30.4141 7.30423 31.3953 8.65412 31.3952C8.78707 31.3952 8.92198 31.3857 9.05758 31.3661L11.7742 30.9736C12.0672 30.9311 12.3573 31.0276 12.5701 31.2378L14.542 33.1863C15.0911 33.7288 15.7954 34.0001 16.5 34C17.2044 33.9999 17.9091 33.7287 18.458 33.1863L20.43 31.2378C20.6427 31.0276 20.9328 30.9315 21.2259 30.9736L23.9425 31.3661C25.4555 31.5847 26.8466 30.5519 27.1106 29.0149L27.5847 26.2546C27.6358 25.9569 27.8151 25.7048 28.0765 25.563L30.5002 24.2495C31.8496 23.5182 32.3812 21.8472 31.7103 20.4453L30.5054 17.9274ZM29.6268 22.5681L27.2032 23.8817C26.4304 24.3006 25.9005 25.0455 25.7493 25.9257L25.2753 28.686C25.1861 29.206 24.7154 29.5553 24.2035 29.4815L21.4868 29.089C20.6205 28.9636 19.7632 29.2484 19.1344 29.8697L17.1624 31.8182C16.791 32.1851 16.209 32.1851 15.8375 31.8182L13.8656 29.8696C13.3342 29.3445 12.6394 29.06 11.9142 29.06C11.7813 29.06 11.6473 29.0695 11.5132 29.0889L8.79654 29.4814C8.28505 29.5553 7.81401 29.206 7.72466 28.686L7.25059 25.9255C7.09941 25.0454 6.5695 24.3004 5.79671 23.8816L3.37305 22.5681C2.91646 22.3206 2.73663 21.7553 2.9636 21.281L4.16855 18.7632C4.5527 17.9604 4.5527 17.0396 4.16855 16.2368L2.9636 13.719C2.73663 13.2447 2.91646 12.6793 3.37305 12.4319L5.79671 11.1184C6.56943 10.6995 7.09941 9.95455 7.25053 9.07439L7.72454 6.31403C7.81389 5.79402 8.28448 5.44469 8.79641 5.51856L11.513 5.91107C12.3791 6.0363 13.2367 5.75162 13.8655 5.13036L15.8375 3.18183C16.2089 2.81484 16.7908 2.81484 17.1624 3.18183L19.1343 5.13036C19.7631 5.75168 20.6205 6.0363 21.4867 5.91107L24.2033 5.51856C24.7149 5.44463 25.1859 5.79402 25.2752 6.31403L25.7492 9.07446C25.9004 9.95462 26.4303 10.6996 27.2031 11.1184L29.6268 12.4319C30.0833 12.6793 30.2632 13.2447 30.0362 13.719L28.8313 16.2367C28.4471 17.0395 28.4471 17.9604 28.8313 18.7631L30.0362 21.2809C30.2632 21.7553 30.0834 22.3207 29.6268 22.5681Z" stroke="white" stroke-width="0.5" />
</symbol><symbol viewBox="0 0 29 28" fill="none" id="icon-sconces">
<path d="M29 20.2816C28.7239 20.7091 28.5116 20.7804 28.0231 20.6165C27.202 20.3386 26.3808 20.0607 25.5596 19.7828C24.5969 19.4551 24.1651 18.8566 24.1509 17.8305C24.1439 17.2249 24.1439 16.6121 24.1509 16.0065C24.158 15.8212 24.0802 15.7642 23.9173 15.7215C22.0697 15.2797 20.9583 14.1183 20.5832 12.2444C20.5194 11.938 20.5195 11.6174 20.5195 11.311C20.5053 9.67936 20.5336 8.04058 20.4911 6.40892C20.4345 4.15024 18.8134 2.0982 16.6544 1.47831C13.8086 0.65179 10.9204 2.14807 9.96478 4.96251C9.79488 5.4684 9.70994 6.01703 9.68162 6.54429C9.63915 7.54894 9.66746 8.56071 9.66746 9.56536C9.66746 9.60811 9.67454 9.65798 9.68162 9.73636C10.2479 9.73636 10.8001 9.73636 11.3522 9.73636C11.7841 9.73636 12.1876 9.84324 12.5486 10.1069C13.0653 10.4916 13.2848 11.0331 13.2919 11.6602C13.2989 12.2587 13.306 12.8572 13.2919 13.4557C13.2848 13.7407 13.3485 13.9901 13.4759 14.2395C14.9483 17.1893 16.4137 20.1391 17.879 23.0889C17.9144 23.1673 17.9569 23.2457 17.9923 23.3169C18.3037 23.894 18.056 24.3358 17.3976 24.3429C16.2438 24.3572 15.097 24.3501 13.9431 24.3501C13.2636 24.3501 13.2636 24.3429 13.0724 24.9842C12.5344 26.8011 10.7859 28.0551 8.96665 27.9981C6.94208 27.934 5.34224 26.509 4.93874 24.6279C4.88919 24.3857 4.79716 24.3501 4.5848 24.3501C3.33183 24.3572 2.07178 24.3501 0.818809 24.3501C0.670151 24.3501 0.514416 24.3429 0.372837 24.3002C0.0118123 24.1791 -0.10145 23.78 0.0967598 23.3739C0.840047 21.8634 1.59749 20.3528 2.34078 18.8423C3.12654 17.2534 3.9123 15.6716 4.69806 14.0827C4.76885 13.9473 4.80424 13.7763 4.80424 13.6267C4.8184 12.9926 4.81132 12.3513 4.81132 11.7172C4.8184 10.5201 5.59 9.74349 6.78634 9.74349C7.32434 9.74349 7.86234 9.74349 8.43573 9.74349C8.43573 9.54398 8.43573 9.36586 8.43573 9.18773C8.44989 8.15458 8.40034 7.11431 8.49236 6.08116C8.71889 3.67998 9.93646 1.88444 12.046 0.780043C14.6652 -0.587987 17.5817 -0.124851 19.7266 1.92007C20.8238 2.96747 21.461 4.27137 21.6662 5.7819C21.7299 6.26641 21.7299 6.76517 21.7299 7.25681C21.737 8.65334 21.7299 10.0499 21.737 11.4464C21.7441 12.3442 22.0202 13.1422 22.6856 13.7692C23.082 14.1468 23.5422 14.4105 24.1368 14.5245C24.1368 14.3178 24.1368 14.1326 24.1368 13.9473C24.1439 13.3844 24.1297 12.8287 24.1651 12.2658C24.2146 11.5604 24.5898 11.0331 25.234 10.7838C26.218 10.4061 27.2232 10.0926 28.2284 9.76486C28.5753 9.65086 28.7806 9.88599 28.9788 10.1282C29 13.5198 29 16.8971 29 20.2816ZM1.59749 23.1103C6.59521 23.1103 11.5434 23.1103 16.5057 23.1103C16.4845 23.0533 16.4774 23.0177 16.4632 22.982C15.1112 20.2602 13.7591 17.5455 12.4141 14.8166C12.3291 14.6456 12.223 14.6242 12.0601 14.6242C10.071 14.6313 8.08178 14.6313 6.08553 14.6242C5.88024 14.6242 5.77406 14.6812 5.68203 14.8736C4.49277 17.2962 3.28935 19.7045 2.08594 22.1199C1.9302 22.4476 1.77446 22.7683 1.59749 23.1103ZM27.7541 19.2413C27.7541 16.548 27.7541 13.9046 27.7541 11.2326C27.0675 11.4678 26.402 11.6815 25.7508 11.9167C25.4747 12.0164 25.3827 12.2587 25.3756 12.5294C25.3685 12.8501 25.3756 13.1778 25.3756 13.4984C25.3756 14.9449 25.3756 16.3841 25.3756 17.8305C25.3756 18.1084 25.411 18.4006 25.6871 18.5074C26.3596 18.7639 27.0462 18.9919 27.7541 19.2413ZM12.0601 13.3844C12.0601 12.7503 12.0743 12.1447 12.0531 11.539C12.046 11.2255 11.7982 10.9904 11.4797 10.9904C9.86567 10.9833 8.25168 10.9833 6.64476 10.9904C6.35453 10.9904 6.09261 11.1828 6.07845 11.4535C6.05013 12.0948 6.07137 12.7361 6.07137 13.3844C8.07471 13.3844 10.0497 13.3844 12.0601 13.3844ZM6.14216 24.3786C6.38992 25.7038 7.58626 26.7726 9.06575 26.7726C10.5877 26.7726 11.7487 25.6753 11.9823 24.3786C10.0426 24.3786 8.10302 24.3786 6.14216 24.3786Z" fill="black" />
<path d="M5.73866 18.2723C6.13507 18.2794 6.40407 18.65 6.29081 19.0418C6.2625 19.1487 6.21294 19.2556 6.16339 19.3553C5.80944 20.0679 5.4555 20.7804 5.10155 21.4858C4.90334 21.8776 4.57064 22.0201 4.25209 21.8563C3.92646 21.6924 3.82027 21.3433 4.00432 20.9585C4.37243 20.1961 4.75469 19.4337 5.13695 18.6713C5.26437 18.4291 5.44842 18.2652 5.73866 18.2723Z" fill="black" />
</symbol><symbol viewBox="0 0 222 132" id="icon-select">
  <metadata id="icon-select_metadata26">
    <rdf:RDF>
      <cc:Work rdf:about="">
        <dc:format>image/svg+xml</dc:format>
        <dc:type rdf:resource="http://purl.org/dc/dcmitype/StillImage"></dc:type>
        <dc:title></dc:title>
      </cc:Work>
    </rdf:RDF>
  </metadata>
  <defs id="icon-select_defs24"></defs>
  <sodipodi:namedview pagecolor="#ffffff" bordercolor="#666666" borderopacity="1" objecttolerance="10" gridtolerance="10" guidetolerance="10" inkscape:pageopacity="0" inkscape:pageshadow="2" inkscape:window-width="1920" inkscape:window-height="1017" id="icon-select_namedview22" showgrid="false" inkscape:zoom="1.7117117" inkscape:cx="111" inkscape:cy="66" inkscape:window-x="1358" inkscape:window-y="-8" inkscape:window-maximized="1" inkscape:current-layer="svg20"></sodipodi:namedview>
  <path style="fill:#c5a363" d="M 106,129.15284 C 103.01746,127.53104 4.0381379,28.214095 2.2854279,25.084495 -0.77213211,19.624955 1.2326379,14.323157 9.2061079,6.7821831 15.362838,0.95940511 17.697148,-0.05120789 22.785118,0.90330111 c 3.1019,0.58191999 9.57667,6.69545899 45.90608,43.34498089 l 42.294842,42.6675 42.25698,-42.725433 c 28.97199,-29.293174 43.12361,-42.9249549 45.01355,-43.36005789 5.35995,-1.233965 9.06992,0.34311199 14.91622,6.34076099 8.17054,8.3820579 9.51308,12.1719769 6.39205,18.0443979 -0.78933,1.485187 -24.33576,25.570121 -52.32538,53.522076 -47.30601,47.242324 -51.16665,50.855284 -54.81485,51.298224 -2.30326,0.27965 -4.95742,-0.0851 -6.42461,-0.88291 z" id="icon-select_path30" inkscape:connector-curvature="0" />
</symbol><symbol viewBox="0 0 31 31" fill="none" id="icon-still">
<path d="M20.0833 14.5833H16.4167V10.9167C16.4167 10.4107 16.0069 10 15.5 10C14.9931 10 14.5833 10.4107 14.5833 10.9167V14.5833H10.9167C10.4098 14.5833 10 14.994 10 15.5C10 16.006 10.4098 16.4167 10.9167 16.4167H14.5833V20.0833C14.5833 20.5893 14.9931 21 15.5 21C16.0069 21 16.4167 20.5893 16.4167 20.0833V16.4167H20.0833C20.5902 16.4167 21 16.006 21 15.5C21 14.994 20.5902 14.5833 20.0833 14.5833Z" fill="black" />
<circle cx="15.5" cy="15.5" r="14.8" stroke="black" stroke-width="1.4" />
</symbol><symbol viewBox="0 0 23 21" fill="none" id="icon-telegram">
<path d="M18.1753 20.2699C17.999 20.2699 17.8238 20.2178 17.6736 20.1159L11.9967 16.2652L8.95201 18.456C8.71322 18.6277 8.40543 18.671 8.12815 18.5718C7.85123 18.4724 7.64092 18.2431 7.56585 17.9586L6.03705 12.1649L0.574482 10.0762C0.230592 9.94466 0.00252311 9.61566 2.0794e-05 9.24747C-0.00248153 8.87927 0.221059 8.54717 0.563281 8.41098L21.334 0.146169C21.4282 0.106132 21.528 0.0830153 21.6285 0.0768191C21.6645 0.0746743 21.7006 0.0746743 21.7365 0.0767C21.9448 0.0890925 22.1494 0.173933 22.309 0.330507C22.3256 0.346712 22.3413 0.363275 22.3562 0.380553C22.4885 0.531646 22.5612 0.715864 22.5749 0.903538C22.5782 0.950725 22.578 0.998507 22.5738 1.04629C22.571 1.08037 22.5661 1.11433 22.5592 1.14805L19.0532 19.5436C18.9968 19.8391 18.7957 20.0864 18.5178 20.2017C18.4076 20.2474 18.2911 20.2699 18.1753 20.2699ZM12.4952 14.4435L17.5519 17.8734L20.2799 3.55969L10.4271 13.0406L12.4713 14.4274C12.4796 14.4325 12.4874 14.438 12.4952 14.4435ZM8.28568 13.6807L8.96274 16.2462L10.4215 15.1966L8.51137 13.9008C8.42259 13.8408 8.34657 13.7659 8.28568 13.6807ZM3.35265 9.22471L7.10351 10.6588C7.37221 10.7615 7.57502 10.9874 7.64842 11.2655L8.1241 13.0683C8.14591 12.8603 8.24016 12.6647 8.39328 12.5173L17.7816 3.48343L3.35265 9.22471Z" fill="#C6A464" />
</symbol><symbol viewBox="0 0 24 33" fill="none" id="icon-torchere">
<path d="M0.384161 6.35302L2.9677 3.25226C3.06585 3.13442 3.21159 3.06624 3.36503 3.06624H3.88171V1.51668C3.88171 1.23149 4.11265 1 4.39839 1H11.6322C11.918 1 12.1489 1.23149 12.1489 1.51668V7.20043H18.8661C19.1518 7.20043 19.3828 7.43191 19.3828 7.71711V9.26722H19.8995C20.0529 9.26722 20.1981 9.3354 20.2968 9.45323L22.8803 12.5534C23.0085 12.7074 23.0364 12.9218 22.9511 13.1032C22.8659 13.2845 22.6835 13.4008 22.483 13.4008H20.9329C20.9329 14.5407 20.0059 15.4676 18.8661 15.4676C17.7263 15.4676 16.7998 14.5406 16.7993 13.4013H15.2492C15.0487 13.4013 14.8663 13.285 14.7816 13.1037C14.6963 12.9218 14.7242 12.7079 14.8524 12.5539L17.4359 9.45317C17.534 9.33534 17.6792 9.26716 17.8327 9.26716H18.3494V8.23373H12.149V27.8782C14.4778 27.9619 16.7993 28.613 16.7993 29.9352C16.7993 31.3551 14.1207 32.002 11.6323 32.002C9.1439 32.002 6.46531 31.3551 6.46531 29.9352C6.46531 28.6135 8.78683 27.9619 11.1156 27.8782V2.03342H4.9152V3.0663H5.43188C5.58532 3.0663 5.73052 3.13448 5.82922 3.25232L8.41275 6.35253C8.54087 6.50651 8.56879 6.72092 8.48353 6.90227C8.39882 7.08362 8.2159 7.19988 8.0159 7.19988H6.46579L6.46524 7.20043C6.46524 8.3403 5.53827 9.26722 4.39845 9.26722C3.25864 9.26722 2.33167 8.34024 2.33167 7.20043H0.781559C0.581076 7.20043 0.398695 7.08417 0.313925 6.90282C0.228607 6.72147 0.256035 6.507 0.384161 6.35302ZM18.8661 14.4343C19.4355 14.4343 19.8995 13.9708 19.8995 13.4009H17.8327C17.8327 13.9708 18.2967 14.4343 18.8661 14.4343ZM18.075 10.3006L16.3523 12.368L21.3798 12.3674L19.6571 10.3006H18.075ZM7.49861 29.9353C7.49861 30.2009 8.92004 30.9688 11.6322 30.9688C14.3444 30.9688 15.7659 30.2009 15.7659 29.9353C15.7659 29.6873 14.5242 29.0012 12.149 28.9117V29.4186C12.149 29.7038 11.918 29.9353 11.6323 29.9353C11.3466 29.9353 11.1156 29.7038 11.1156 29.4186V28.9117C8.74027 29.0011 7.49861 29.6873 7.49861 29.9353ZM4.39839 8.23385C4.9683 8.23385 5.43182 7.77039 5.43182 7.20043C5.43182 7.20043 5.43182 7.20043 5.43182 7.19988L3.36503 7.20043C3.36503 7.77033 3.82849 8.23385 4.39839 8.23385ZM6.91217 6.16652L5.18949 4.09973H3.60681L1.88462 6.16706L6.91217 6.16652Z" fill="black" stroke="black" stroke-width="0.25" />
</symbol><symbol viewBox="0 0 22 23" fill="none" id="icon-viber">
<path d="M18.8554 3.41612C17.2014 1.79451 14.5272 1.00878 10.906 1.07959C7.25452 1.1514 4.81372 1.7923 3.22465 3.09659C1.68823 4.35756 0.972656 6.20273 0.972656 8.90341V11.6597C0.972656 14.848 2.68111 18.3531 5.94636 18.8835C6.32332 18.9451 6.67843 18.6888 6.73965 18.3118C6.80086 17.9349 6.54494 17.5797 6.16798 17.5185C3.69169 17.1163 2.35549 14.1997 2.35549 11.6597V8.90341C2.35549 5.03091 3.79042 2.60255 10.9331 2.46206C14.1712 2.39789 16.5084 3.05161 17.8872 4.40347C18.9616 5.4571 19.484 6.92899 19.484 8.90341V11.6597C19.484 15.8335 17.6106 17.6744 12.8057 18.2165H9.39857C9.2152 18.2165 9.03931 18.2893 8.90969 18.419L6.50899 20.8197C6.23897 21.0897 6.23897 21.5275 6.50899 21.7976C6.64395 21.9325 6.82096 22.0001 6.99787 22.0001C7.17478 22.0001 7.35178 21.9326 7.48675 21.7976L9.685 19.5993H12.8443C12.8698 19.5993 12.8953 19.5979 12.9207 19.5951C15.6705 19.2896 17.5535 18.574 18.8465 17.3427C20.206 16.048 20.8669 14.1891 20.8669 11.6596V8.90341C20.8669 6.57112 20.1901 4.72493 18.8554 3.41612Z" fill="#C6A464" stroke="#C6A464" stroke-width="0.5" />
<path d="M11.3513 5.59136C11.3514 5.59136 11.3514 5.59136 11.3516 5.59136C12.4657 5.59136 13.5132 6.0253 14.301 6.81315C15.0889 7.60109 15.5229 8.64873 15.5228 9.76302C15.5228 10.1449 15.8323 10.4544 16.2141 10.4544C16.2142 10.4544 16.2142 10.4544 16.2142 10.4544C16.5961 10.4544 16.9056 10.145 16.9056 9.76311C16.9057 8.27942 16.328 6.8845 15.2789 5.83539C14.2298 4.78628 12.8352 4.20862 11.3516 4.20862C11.3515 4.20862 11.3512 4.20862 11.3511 4.20862C10.9693 4.20862 10.6598 4.51819 10.6598 4.90004C10.6599 5.28179 10.9695 5.59136 11.3513 5.59136Z" fill="#C6A464" stroke="#C6A464" stroke-width="0.5" />
<path d="M11.3511 8.02285C12.3106 8.02304 13.0914 8.8037 13.0915 9.76311C13.0916 10.145 13.4011 10.4545 13.783 10.4544C14.1649 10.4544 14.4744 10.1448 14.4743 9.76293C14.474 8.0412 13.0731 6.64029 11.3513 6.64001H11.3512C10.9694 6.64001 10.6599 6.94949 10.6598 7.33134C10.6598 7.71319 10.9693 8.02285 11.3511 8.02285Z" fill="#C6A464" stroke="#C6A464" stroke-width="0.5" />
<path d="M8.25081 9.20738C7.93561 9.42292 7.85476 9.85317 8.07021 10.1684C8.28566 10.4836 8.716 10.5643 9.03119 10.3489C9.27909 10.1794 9.85969 9.78246 9.81895 8.98889C9.79313 8.51393 9.36473 7.83579 9.00989 7.3505C8.49087 6.64046 8.04357 6.2128 7.6832 6.08023C7.34671 5.95494 6.99482 5.95227 6.63658 6.07248C5.89454 6.3225 5.35579 6.77432 5.07867 7.37908C4.80883 7.9678 4.81482 8.64438 5.09609 9.33608C5.76041 10.9658 6.69041 12.3926 7.86647 13.583C9.05064 14.7527 10.4774 15.6828 12.1077 16.3474C12.4605 16.491 12.8096 16.5628 13.145 16.5628C13.4668 16.5628 13.7761 16.4968 14.0643 16.3647C14.669 16.0875 15.1207 15.5488 15.371 14.8058C15.4909 14.4484 15.4882 14.0967 15.3639 13.7625C15.2305 13.3996 14.8027 12.9524 14.0927 12.4334C13.6074 12.0785 12.9292 11.6501 12.4524 11.6242C11.6605 11.5844 11.2639 12.164 11.0945 12.4119C10.8789 12.7271 10.9596 13.1573 11.2748 13.373C11.5901 13.5886 12.0202 13.5078 12.2359 13.1926C12.3111 13.0826 12.3541 13.0327 12.3787 13.0108C12.7668 13.1352 13.8735 13.9483 14.0727 14.2599C14.0776 14.2798 14.0787 14.3101 14.0603 14.3654C13.9731 14.6243 13.803 14.9633 13.4882 15.1077C13.1933 15.2426 12.8582 15.1599 12.6293 15.0668C11.1684 14.4712 9.89298 13.641 8.84423 12.6051C7.8024 11.5506 6.97224 10.2751 6.37697 8.81475C6.28367 8.58538 6.2008 8.25009 6.33585 7.95545C6.48013 7.64062 6.8192 7.47044 7.07733 7.38342C7.13246 7.36498 7.16279 7.36599 7.18381 7.37106C7.4955 7.57065 8.30815 8.67674 8.43261 9.06495C8.41066 9.08919 8.36079 9.13225 8.25081 9.20738Z" fill="#C6A464" stroke="#C6A464" stroke-width="0.5" />
</symbol><symbol viewBox="0 0 22 22" fill="none" id="icon-whatsapp">
<path d="M10.9512 1C5.46399 1 1 5.46417 1 10.9513C1 13.0988 1.87165 15.0271 2.24649 15.7565C2.421 16.0962 2.83798 16.2298 3.17751 16.0554C3.51713 15.8809 3.65099 15.464 3.47648 15.1244C3.14773 14.4845 2.38293 12.7969 2.38293 10.9512C2.38284 6.22667 6.22658 2.38284 10.9512 2.38284C15.6763 2.38284 19.5203 6.22667 19.5203 10.9513C19.5203 15.6761 15.6763 19.5199 10.9512 19.5199C9.10334 19.5199 7.63504 18.8801 7.08947 18.6049C6.92768 18.5232 6.74025 18.5085 6.56768 18.5637L2.21247 19.9555C1.84879 20.0717 1.64809 20.4608 1.76434 20.8246C1.85819 21.1184 2.13015 21.3057 2.42276 21.3057C2.49254 21.3057 2.56344 21.2951 2.63341 21.2727L6.72578 19.9649C7.58194 20.3623 9.08887 20.9027 10.9512 20.9027C16.4387 20.9027 20.9031 16.4386 20.9031 10.9513C20.9031 5.46417 16.4387 1 10.9512 1Z" fill="#C6A464" stroke="#C6A464" stroke-width="0.5" />
<path d="M8.9893 9.25435C8.68646 9.48694 8.62958 9.92097 8.86208 10.2239C9.09467 10.5267 9.52861 10.5837 9.83163 10.3511C10.0436 10.1883 10.6066 9.75595 10.5242 8.98257C10.4734 8.52283 10.0248 7.89197 9.6574 7.44384C9.11984 6.78801 8.66479 6.39962 8.30747 6.29028C7.97264 6.18647 7.62951 6.20288 7.2873 6.33914C6.58335 6.6205 6.08654 7.08661 5.85053 7.68713C5.62071 8.27198 5.66247 8.92643 5.97158 9.58042C6.69314 11.1036 7.65754 12.419 8.83802 13.4904C8.84263 13.4948 8.84733 13.499 8.85203 13.5033C10.0493 14.5616 11.4658 15.377 13.0628 15.9272C13.3658 16.0313 13.6632 16.0832 13.9488 16.0832C14.3076 16.0832 14.6479 16.0013 14.9574 15.8381C15.5281 15.5372 15.9365 14.9921 16.1387 14.2603C16.236 13.9056 16.2143 13.563 16.0751 13.244C15.9259 12.8988 15.4897 12.4895 14.7786 12.0278C14.2929 11.7123 13.6169 11.3363 13.1524 11.3363C13.1521 11.3363 13.1517 11.3363 13.1514 11.3363C12.3764 11.3395 12.0085 11.9467 11.87 12.1755C11.6722 12.5021 11.7766 12.9273 12.1032 13.1251C12.4296 13.3229 12.8549 13.2187 13.0528 12.8919C13.1075 12.8016 13.1421 12.7537 13.1639 12.7286C13.5544 12.842 14.599 13.5253 14.8131 13.8128C14.8166 13.8281 14.817 13.8513 14.8055 13.8934C14.7374 14.14 14.5964 14.4653 14.3124 14.6151C14.047 14.7548 13.7305 14.6946 13.5125 14.6198C12.0916 14.1302 10.8341 13.4082 9.77485 12.4737C9.77457 12.4734 9.7742 12.4731 9.77392 12.4728C8.72509 11.5225 7.86625 10.3503 7.22139 8.98912C7.12265 8.78003 7.02779 8.47221 7.1375 8.19316C7.25495 7.89428 7.56277 7.71838 7.79969 7.6237C7.84035 7.60748 7.8633 7.60499 7.87999 7.6072C8.18956 7.78835 8.9834 8.75053 9.13929 9.1262C9.1168 9.15045 9.07292 9.19009 8.9893 9.25435Z" fill="#C6A464" stroke="#C6A464" stroke-width="0.5" />
</symbol></defs></svg>